<svg xmlns="http://www.w3.org/2000/svg" viewBox="0 0 256 256">
  <rect width="256" height="256" fill="#000000"/>
  <circle cx="128" cy="128" r="90" fill="#DC2626"/>
  <path d="M128 60 L148 80 L148 100 L138 100 L138 140 L118 140 L118 100 L108 100 L108 80 Z" fill="#000000"/>
  <path d="M160 120 L180 120 L180 160 L200 160 L200 180 L180 180 L180 200 L160 200 L160 180 L140 180 L140 160 L160 160 Z" fill="#000000"/>
  <path d="M180 60 Q200 60 200 80 L200 100 Q200 120 180 120 L160 120 L160 100 L180 100 Q180 90 180 80 L160 80 L160 60 Z" fill="#000000"/>
  <path d="M56 120 L96 120 L96 140 L86 140 L86 180 Q86 200 66 200 Q46 200 46 180 L46 140 L56 140 Z M66 180 Q66 180 66 180 L66 140 L66 140 Q66 140 66 140 Z" fill="#000000"/>
  <circle cx="70" cy="85" r="18" fill="none" stroke="#000000" stroke-width="8"/>
  <rect x="62" y="50" width="16" height="25" fill="#000000"/>
</svg>